<?xml version="1.0" encoding="UTF-8"?>
<svg xmlns="http://www.w3.org/2000/svg" xmlns:xlink="http://www.w3.org/1999/xlink" width="172px" height="172px" viewBox="0 0 172 172" version="1.1">
<g id="surface1">
<path style=" stroke:none;fill-rule:nonzero;fill:rgb(40.392157%,43.137255%,75.686275%);fill-opacity:1;" d="M 149.746094 12.023438 C 146.476562 8.753906 142.671875 6.1875 138.433594 4.394531 C 134.042969 2.539062 129.378906 1.597656 124.574219 1.597656 L 113.082031 1.597656 C 113.65625 2.832031 114.082031 4.066406 114.449219 5.179688 C 114.484375 5.28125 114.515625 5.386719 114.550781 5.492188 L 124.574219 5.492188 C 142.085938 5.492188 156.28125 19.683594 156.28125 37.195312 L 156.28125 89.441406 C 156.28125 90.417969 155.488281 91.210938 154.507812 91.214844 L 135.042969 91.257812 L 135.042969 50.898438 L 131.238281 50.898438 L 131.085938 166.335938 C 131.085938 167.3125 130.289062 168.105469 129.3125 168.105469 L 42.6875 168.105469 C 41.710938 168.105469 40.917969 167.3125 40.921875 166.335938 L 41.179688 50.898438 L 37.464844 50.898438 L 37.464844 91.226562 L 17.492188 91.210938 C 16.511719 91.210938 15.722656 90.417969 15.722656 89.441406 L 15.722656 37.195312 C 15.722656 19.683594 29.914062 5.492188 47.425781 5.492188 L 57.59375 5.492188 C 58.089844 3.914062 58.597656 2.652344 59.101562 1.597656 L 47.425781 1.597656 C 42.621094 1.597656 37.957031 2.539062 33.566406 4.394531 C 29.328125 6.1875 25.523438 8.753906 22.253906 12.023438 C 18.984375 15.292969 16.421875 19.097656 14.628906 23.335938 C 12.769531 27.726562 11.828125 32.390625 11.828125 37.195312 L 11.828125 89.441406 C 11.828125 92.5625 14.367188 95.101562 17.488281 95.105469 L 37.15625 95.121094 L 37.027344 166.328125 C 37.023438 167.84375 37.613281 169.269531 38.679688 170.339844 C 39.75 171.410156 41.171875 172 42.6875 172 L 129.3125 172 C 132.433594 172 134.972656 169.460938 134.980469 166.34375 L 135.109375 95.152344 L 154.519531 95.105469 C 157.636719 95.101562 160.171875 92.558594 160.171875 89.441406 L 160.171875 37.195312 C 160.171875 32.390625 159.230469 27.726562 157.375 23.335938 C 155.582031 19.097656 153.015625 15.292969 149.746094 12.023438 Z M 149.746094 12.023438 "/>
<path style=" stroke:none;fill-rule:nonzero;fill:rgb(40.392157%,43.137255%,75.686275%);fill-opacity:1;" d="M 147.632812 60.308594 C 149.101562 60.308594 150.289062 59.121094 150.289062 57.652344 L 150.289062 36.429688 C 150.289062 22.648438 138.855469 11.433594 124.804688 11.433594 L 116.019531 11.433594 C 116.03125 11.496094 116.042969 11.554688 116.054688 11.617188 C 116.226562 12.496094 116.847656 15.910156 117.007812 16.742188 L 124.804688 16.742188 C 135.929688 16.742188 144.980469 25.574219 144.980469 36.429688 L 144.980469 57.652344 C 144.980469 59.121094 146.167969 60.308594 147.632812 60.308594 Z M 147.632812 60.308594 "/>
<path style=" stroke:none;fill-rule:nonzero;fill:rgb(40.392157%,43.137255%,75.686275%);fill-opacity:1;" d="M 56.113281 11.433594 L 47.195312 11.433594 C 33.144531 11.433594 21.710938 22.648438 21.710938 36.429688 L 21.710938 57.652344 C 21.710938 59.121094 22.898438 60.308594 24.367188 60.308594 C 25.832031 60.308594 27.019531 59.121094 27.019531 57.652344 L 27.019531 36.429688 C 27.019531 25.574219 36.070312 16.742188 47.195312 16.742188 L 55.179688 16.742188 C 55.308594 16.042969 55.894531 12.5625 56.09375 11.535156 C 56.101562 11.5 56.109375 11.46875 56.113281 11.433594 Z M 56.113281 11.433594 "/>
<path style=" stroke:none;fill-rule:nonzero;fill:rgb(40.392157%,43.137255%,75.686275%);fill-opacity:1;" d="M 111.175781 67.367188 C 116.105469 67.367188 120.105469 62.671875 120.105469 57.738281 L 120.105469 52.667969 C 120.105469 51.691406 119.3125 50.898438 118.335938 50.898438 L 104.011719 50.898438 C 103.035156 50.898438 102.242188 51.691406 102.242188 52.667969 L 102.242188 57.738281 C 102.242188 62.671875 106.242188 67.367188 111.175781 67.367188 Z M 111.175781 67.367188 "/>
<path style=" stroke:none;fill-rule:nonzero;fill:rgb(40.392157%,43.137255%,75.686275%);fill-opacity:1;" d="M 123.804688 46.347656 L 98.542969 46.347656 C 97.808594 46.347656 97.214844 46.941406 97.214844 47.675781 L 97.214844 57.351562 C 97.214844 65.363281 103.738281 72.390625 111.175781 72.390625 C 118.609375 72.390625 125.132812 65.363281 125.132812 57.351562 L 125.132812 47.675781 C 125.132812 46.941406 124.539062 46.347656 123.804688 46.347656 Z M 122.476562 57.351562 C 122.476562 60.417969 121.253906 63.550781 119.117188 65.9375 C 116.925781 68.386719 114.105469 69.738281 111.175781 69.738281 C 108.242188 69.738281 105.421875 68.386719 103.230469 65.9375 C 101.09375 63.550781 99.871094 60.417969 99.871094 57.351562 L 99.871094 49.003906 L 122.476562 49.003906 Z M 122.476562 57.351562 "/>
<path style=" stroke:none;fill-rule:nonzero;fill:rgb(40.392157%,43.137255%,75.686275%);fill-opacity:1;" d="M 56.507812 24.992188 C 56.652344 24.992188 56.816406 24.964844 57 24.90625 L 62.574219 23.101562 C 62.839844 23.019531 63.136719 22.976562 63.445312 22.976562 C 64.289062 22.976562 65.222656 23.277344 65.824219 23.765625 C 70.960938 27.964844 76.882812 31.515625 80.976562 33.769531 C 81.152344 32.46875 81.757812 31.285156 82.785156 30.246094 C 83.054688 29.976562 83.339844 29.726562 83.628906 29.5 C 78.558594 26.335938 73.753906 22.671875 69.636719 18.328125 C 68.320312 16.945312 66.746094 15.363281 65.542969 13.65625 C 65.15625 13.105469 64.804688 12.542969 64.515625 11.964844 C 64.367188 11.671875 64.234375 11.375 64.121094 11.074219 C 63.429688 9.25 63.390625 7.371094 63.59375 5.492188 C 63.734375 4.1875 63.988281 2.882812 64.222656 1.597656 C 64.246094 1.472656 64.269531 1.34375 64.289062 1.21875 C 64.398438 0.617188 63.832031 0 63.289062 0 C 63.0625 0 62.839844 0.109375 62.671875 0.371094 C 62.417969 0.773438 62.179688 1.183594 61.953125 1.597656 C 61.273438 2.84375 60.71875 4.152344 60.257812 5.488281 C 59.585938 7.421875 59.101562 9.425781 58.699219 11.433594 C 58.660156 11.628906 58.621094 11.824219 58.582031 12.019531 C 58.277344 13.578125 58.03125 15.164062 57.753906 16.742188 C 57.339844 19.085938 56.847656 21.414062 55.964844 23.621094 C 55.628906 24.457031 55.875 24.992188 56.507812 24.992188 Z M 56.507812 24.992188 "/>
<path style=" stroke:none;fill-rule:nonzero;fill:rgb(40.392157%,43.137255%,75.686275%);fill-opacity:1;" d="M 114.714844 18.203125 C 114.617188 17.714844 114.523438 17.230469 114.429688 16.742188 C 114.136719 15.195312 113.867188 13.644531 113.570312 12.097656 C 113.523438 11.878906 113.480469 11.65625 113.4375 11.433594 C 113.0625 9.589844 112.628906 7.757812 112.042969 5.96875 C 111.992188 5.808594 111.9375 5.648438 111.882812 5.492188 C 111.433594 4.15625 110.929688 2.828125 110.242188 1.597656 C 110.1875 1.5 110.132812 1.398438 110.074219 1.300781 C 109.820312 0.867188 109.53125 0.226562 108.996094 0.078125 C 108.910156 0.0546875 108.820312 0.0429688 108.734375 0.0429688 C 108.210938 0.0429688 107.710938 0.445312 107.8125 1.03125 C 107.84375 1.21875 107.878906 1.40625 107.910156 1.597656 C 108.144531 2.878906 108.390625 4.183594 108.527344 5.492188 C 108.691406 7.105469 108.683594 8.726562 108.246094 10.304688 C 107.6875 12.316406 106.292969 13.882812 104.972656 15.441406 C 101.671875 19.34375 97.847656 22.792969 93.75 25.835938 C 91.789062 27.289062 89.726562 28.597656 87.652344 29.878906 C 87.472656 29.988281 87.296875 30.101562 87.117188 30.210938 C 86.941406 30.320312 86.757812 30.429688 86.574219 30.542969 C 86.222656 30.761719 85.863281 30.992188 85.519531 31.242188 C 84.394531 32.058594 83.453125 33.070312 83.453125 34.574219 L 83.453125 58.699219 C 83.453125 59.820312 84.285156 60.730469 85.308594 60.730469 L 86.839844 60.730469 C 87.867188 60.730469 88.699219 59.820312 88.699219 58.699219 C 88.699219 56.21875 88.699219 53.738281 88.699219 51.257812 C 88.699219 48.578125 88.6875 40.507812 88.679688 39.148438 C 88.667969 38.070312 88.582031 36.800781 89.023438 35.742188 C 89.5625 34.464844 90.785156 33.90625 91.929688 33.265625 C 95.910156 31.03125 99.800781 28.574219 103.476562 25.867188 C 104.390625 25.1875 105.292969 24.488281 106.175781 23.765625 C 106.777344 23.277344 107.710938 22.976562 108.554688 22.976562 C 108.863281 22.976562 109.160156 23.019531 109.425781 23.101562 L 115 24.90625 C 115.183594 24.964844 115.347656 24.992188 115.492188 24.992188 C 115.992188 24.992188 116.25 24.652344 116.167969 24.097656 C 116.023438 23.117188 115.65625 22.179688 115.40625 21.222656 C 115.148438 20.222656 114.921875 19.214844 114.714844 18.203125 Z M 114.714844 18.203125 "/>
</g>
</svg>
