<?xml version="1.0" encoding="iso-8859-1"?>
<!-- Generator: Adobe Illustrator 19.0.0, SVG Export Plug-In . SVG Version: 6.00 Build 0)  -->
<svg version="1.1" id="Capa_1" xmlns="http://www.w3.org/2000/svg" xmlns:xlink="http://www.w3.org/1999/xlink" x="0px" y="0px"
	 viewBox="0 0 496 496" style="enable-background:new 0 0 496 496;" xml:space="preserve">
<circle style="fill:#D9CFC7;" cx="128" cy="248" r="120"/>
<path d="M128,376C57.6,376,0,318.4,0,248s57.6-128,128-128s128,57.6,128,128S198.4,376,128,376z M128,136c-61.6,0-112,50.4-112,112
	s50.4,112,112,112s112-50.4,112-112S189.6,136,128,136z"/>
<polygon style="fill:#5C6373;" points="104,288 88,232 128,208 168,232 152,288 "/>
<path d="M152,296h-48c-3.2,0-6.4-2.4-8-5.6l-16-56c-0.8-3.2,0.8-7.2,3.2-8.8l40-24c2.4-1.6,5.6-1.6,8,0l40,24
	c3.2,1.6,4.8,5.6,3.2,8.8l-16,56C158.4,293.6,155.2,296,152,296z M110.4,280h36l12.8-44L128,217.6L97.6,236L110.4,280z"/>
<path style="fill:#5C6373;" d="M144,160l18.4-27.2c-22.4-6.4-45.6-6.4-68,0L112,160H144z"/>
<path d="M144,168h-32c-2.4,0-4.8-1.6-6.4-3.2l-18.4-27.2c-2.4-4-1.6-8.8,2.4-11.2c0.8-0.8,1.6-0.8,2.4-0.8c24-7.2,48.8-7.2,72.8,0
	c4,1.6,6.4,5.6,5.6,9.6c0,0.8-0.8,1.6-0.8,2.4l-18.4,27.2C148.8,166.4,146.4,168,144,168z M116,152h23.2l9.6-13.6
	c-13.6-2.4-28-2.4-42.4,0L116,152z"/>
<rect x="120" y="160" width="16" height="48"/>
<rect x="60.004" y="196.808" transform="matrix(-0.5145 0.8575 -0.8575 -0.5145 291.6471 274.8882)" width="16" height="46.4"/>
<path style="fill:#5C6373;" d="M10.4,224H40l16-32l-13.6-28C26.4,180.8,15.2,201.6,10.4,224z"/>
<path d="M40,232H10.4c-4.8,0-8-3.2-8-8c0-0.8,0-0.8,0-1.6c4.8-24,16.8-46.4,33.6-64c3.2-3.2,8-3.2,11.2,0c0.8,0.8,1.6,1.6,2.4,2.4
	l13.6,28c0.8,2.4,0.8,4.8,0,7.2l-16,32C45.6,230.4,43.2,232,40,232z M20.8,216h14.4l12-24L40,178.4C31.2,189.6,24.8,202.4,20.8,216z
	"/>
<rect x="164.788" y="212.002" transform="matrix(-0.8574 0.5146 -0.5146 -0.8574 462.3874 311.8952)" width="46.399" height="16"/>
<path style="fill:#5C6373;" d="M200,192l16,32h29.6c-4.8-22.4-16-43.2-32-60L200,192z"/>
<path d="M245.6,232H216c-3.2,0-5.6-1.6-7.2-4.8l-16-32c-0.8-2.4-0.8-4.8,0-7.2l13.6-28c1.6-4,6.4-5.6,10.4-3.2
	c0.8,0,1.6,0.8,2.4,1.6c16.8,17.6,28.8,40,33.6,64c0.8,4-1.6,8.8-6.4,9.6C246.4,232,246.4,232,245.6,232z M220.8,216h14.4
	c-4-13.6-10.4-26.4-20-37.6l-6.4,13.6L220.8,216z"/>
<rect x="156" y="284" transform="matrix(-0.8 0.6 -0.6 -0.8 477.6 448.8)" width="16" height="40"/>
<path style="fill:#5C6373;" d="M224,320l-32-8l-32,24v27.2C185.6,356.8,208,340.8,224,320z"/>
<path d="M160,371.2c-4.8,0-8-3.2-8-8V336c0-2.4,0.8-4.8,3.2-6.4l32-24c1.6-1.6,4.8-1.6,6.4-1.6l32,8c4,0.8,7.2,5.6,5.6,9.6
	c0,0.8-0.8,2.4-1.6,3.2c-16.8,22.4-40.8,39.2-68,46.4C161.6,371.2,160.8,371.2,160,371.2z M168,340v12.8c16-6.4,29.6-16,41.6-28
	l-16-4L168,340z"/>
<rect x="71.988" y="296.016" transform="matrix(-0.6002 0.7999 -0.7999 -0.6002 390.3712 412.9008)" width="40.002" height="16.001"/>
<path style="fill:#5C6373;" d="M32,320c16,20.8,38.4,36.8,64,43.2V336l-32-24L32,320z"/>
<path d="M96,371.2c-0.8,0-1.6,0-2.4,0c-27.2-7.2-51.2-24-68-46.4c-2.4-3.2-1.6-8.8,1.6-11.2c0.8-0.8,1.6-0.8,3.2-1.6l32-8
	c1.6,0,4.8,0,6.4,1.6l32,24c2.4,1.6,3.2,4,3.2,6.4v27.2C104,368,100.8,371.2,96,371.2L96,371.2z M46.4,324.8
	c11.2,12,25.6,21.6,41.6,28V340l-25.6-19.2L46.4,324.8z"/>
<circle style="fill:#D9CFC7;" cx="368" cy="248" r="120"/>
<path d="M368,376c-70.4,0-128-57.6-128-128s57.6-128,128-128s128,57.6,128,128S438.4,376,368,376z M368,136
	c-61.6,0-112,50.4-112,112s50.4,112,112,112s112-50.4,112-112S429.6,136,368,136z"/>
<polygon style="fill:#5C6373;" points="344,288 328,232 368,208 408,232 392,288 "/>
<path d="M392,296h-48c-3.2,0-6.4-2.4-8-5.6l-16-56c-0.8-3.2,0.8-7.2,3.2-8.8l40-24c2.4-1.6,5.6-1.6,8,0l40,24
	c3.2,1.6,4.8,5.6,3.2,8.8l-16,56C398.4,293.6,395.2,296,392,296z M350.4,280h36l12.8-44L368,217.6L337.6,236L350.4,280z"/>
<path style="fill:#5C6373;" d="M384,160l18.4-27.2c-22.4-6.4-45.6-6.4-68,0L352,160H384z"/>
<path d="M384,168h-32c-2.4,0-4.8-1.6-6.4-3.2l-18.4-27.2c-2.4-4-1.6-8.8,2.4-11.2c0.8-0.8,1.6-0.8,2.4-0.8c24-7.2,48.8-7.2,72.8,0
	c4,1.6,6.4,5.6,5.6,9.6c0,0.8-0.8,1.6-0.8,2.4l-18.4,27.2C388.8,166.4,386.4,168,384,168z M356,152h23.2l9.6-13.6
	c-13.6-2.4-28-2.4-42.4,0L356,152z"/>
<rect x="360" y="160" width="16" height="48"/>
<rect x="300.004" y="196.808" transform="matrix(-0.5145 0.8575 -0.8575 -0.5145 655.1261 69.0899)" width="16" height="46.4"/>
<path style="fill:#5C6373;" d="M250.4,224H280l16-32l-13.6-28C266.4,180.8,255.2,201.6,250.4,224z"/>
<path d="M280,232h-29.6c-4.8,0-8-3.2-8-8c0-0.8,0-0.8,0-1.6c4.8-24,16.8-46.4,33.6-64c3.2-3.2,8-3.2,11.2,0c0.8,0.8,0.8,1.6,1.6,2.4
	l13.6,28c0.8,2.4,0.8,4.8,0,7.2l-16,32C285.6,230.4,283.2,232,280,232z M260.8,216h14.4l12-24l-7.2-13.6
	C271.2,189.6,264.8,202.4,260.8,216z"/>
<rect x="404.788" y="212.002" transform="matrix(-0.8574 0.5146 -0.5146 -0.8574 908.1688 188.388)" width="46.399" height="16"/>
<path style="fill:#5C6373;" d="M440,192l16,32h29.6c-4.8-22.4-16-43.2-32-60L440,192z"/>
<path d="M485.6,232H456c-3.2,0-5.6-1.6-7.2-4.8l-16-32c-0.8-2.4-0.8-4.8,0-7.2l13.6-28c1.6-4,6.4-5.6,10.4-3.2
	c0.8,0,1.6,0.8,2.4,1.6c16.8,17.6,28.8,40,33.6,64c0.8,4-1.6,8.8-6.4,9.6C486.4,232,486.4,232,485.6,232z M460.8,216h14.4
	c-4-13.6-10.4-26.4-20-37.6l-6.4,13.6L460.8,216z"/>
<rect x="396" y="284" transform="matrix(-0.8 0.6 -0.6 -0.8 909.6 304.8)" width="16" height="40"/>
<path style="fill:#5C6373;" d="M464,320l-32-8l-32,24v27.2C425.6,356.8,448,340.8,464,320z"/>
<path d="M400,371.2c-4.8,0-8-3.2-8-8V336c0-2.4,0.8-4.8,3.2-6.4l32-24c1.6-1.6,4.8-1.6,6.4-1.6l32,8c4,0.8,7.2,5.6,5.6,9.6
	c0,0.8-0.8,2.4-1.6,3.2c-16.8,22.4-40.8,39.2-68,46.4C401.6,371.2,400.8,371.2,400,371.2z M408,340v12.8c16-6.4,29.6-16,41.6-28
	l-16-4L408,340z"/>
<rect x="312.02" y="296.008" transform="matrix(-0.6002 0.7999 -0.7999 -0.6002 774.4583 220.8941)" width="40.002" height="16.001"/>
<path style="fill:#5C6373;" d="M272,320c16,20.8,38.4,36.8,64,43.2V336l-32-24L272,320z"/>
<path d="M336,371.2c-0.8,0-1.6,0-2.4,0c-27.2-7.2-51.2-24-68-46.4c-2.4-3.2-1.6-8.8,1.6-11.2c0.8-0.8,1.6-0.8,3.2-1.6l32-8
	c2.4-0.8,4.8,0,6.4,1.6l32,24c2.4,1.6,3.2,4,3.2,6.4v27.2C344,368,340.8,371.2,336,371.2L336,371.2z M286.4,324.8
	c11.2,12,25.6,21.6,41.6,28V340l-25.6-19.2L286.4,324.8z"/>
<g>
</g>
<g>
</g>
<g>
</g>
<g>
</g>
<g>
</g>
<g>
</g>
<g>
</g>
<g>
</g>
<g>
</g>
<g>
</g>
<g>
</g>
<g>
</g>
<g>
</g>
<g>
</g>
<g>
</g>
</svg>
