<?xml version="1.0" encoding="iso-8859-1"?>
<!-- Generator: Adobe Illustrator 18.0.0, SVG Export Plug-In . SVG Version: 6.00 Build 0)  -->
<!DOCTYPE svg PUBLIC "-//W3C//DTD SVG 1.1//EN" "http://www.w3.org/Graphics/SVG/1.1/DTD/svg11.dtd">
<svg version="1.1" id="Capa_1" xmlns="http://www.w3.org/2000/svg" xmlns:xlink="http://www.w3.org/1999/xlink" x="0px" y="0px"
	 viewBox="0 0 486.292 486.292" style="enable-background:new 0 0 486.292 486.292;" xml:space="preserve">
<g>
	<path d="M466.062,271.192H344.828H325.23l74.634-160.745c1.507-3.245,1.66-6.883,0.431-10.243c-1.229-3.36-3.693-6.041-6.939-7.548
		L196.496,1.254c-3.246-1.508-6.884-1.661-10.244-0.43c-3.34,1.222-6.008,3.664-7.52,6.881l-23.405,46.958H29.375
		c-7.386,0-13.396,6.009-13.396,13.395v310.934c0,7.386,6.009,13.395,13.396,13.395h37.427
		c6.725,52.885,52.006,93.906,106.688,93.906c18.73,0,36.353-4.816,51.705-13.27c0.293-0.123,0.58-0.268,0.848-0.463l0.074-0.054
		c7.083-3.991,13.675-8.756,19.651-14.188l121.844-87.974l99.321-20.844c1.968-0.413,3.377-2.148,3.377-4.159v-69.898
		C470.312,273.094,468.409,271.192,466.062,271.192z M270.523,279.692h70.055v8.822h-70.055V279.692z M186.364,11.449
		c0.018-0.035,0.035-0.07,0.051-0.106c0.551-1.186,1.53-2.087,2.759-2.536c1.228-0.45,2.558-0.394,3.743,0.156l177.564,82.443
		l-75.873,163.41c-0.988,2.129-0.064,4.656,2.065,5.645c0.58,0.27,1.188,0.396,1.787,0.396c1.603,0,3.138-0.911,3.858-2.461
		l75.872-163.41l11.585,5.379c1.186,0.551,2.086,1.53,2.535,2.759c0.45,1.229,0.394,2.558-0.157,3.743l-76.233,164.189
		c-0.02,0.044-0.028,0.091-0.047,0.136h-49.6h-6.458V68.057c0-7.386-6.009-13.395-13.395-13.395h-81.594L186.364,11.449z
		 M29.375,383.885c-2.699,0-4.896-2.195-4.896-4.895V68.057c0-2.699,2.196-4.895,4.896-4.895h217.044
		c2.699,0,4.895,2.195,4.895,4.895v203.135h-77.824c-59.303,0-107.55,48.246-107.55,107.549c0,1.725,0.045,3.44,0.126,5.145H29.375z
		 M74.441,378.741c0-54.615,44.434-99.049,99.05-99.049c54.617,0,99.051,44.434,99.051,99.049c0,28.852-12.402,54.857-32.151,72.977
		l-18.86,13.618c-14.237,7.93-30.618,12.456-48.039,12.456C118.874,477.792,74.441,433.358,74.441,378.741z M461.812,341.89
		l-96.827,20.32c-0.582,0.122-1.132,0.365-1.615,0.714l-97.05,70.072c9.351-15.938,14.722-34.48,14.722-54.256
		c0-2.313-0.082-4.605-0.227-6.883h55.972c2.347,0,4.25-1.902,4.25-4.25c0-2.348-1.903-4.25-4.25-4.25h-56.85
		c-5.43-37.744-30.526-69.221-64.543-83.666h46.629v13.072c0,2.348,1.903,4.25,4.25,4.25h78.555c2.347,0,4.25-1.902,4.25-4.25
		v-13.072h92.02v45.293c0,2.348,1.903,4.25,4.25,4.25c2.347,0,4.25-1.902,4.25-4.25v-45.293h12.215V341.89z"/>
	<path d="M173.491,452.593c-40.721,0-73.851-33.13-73.851-73.852c0-40.721,33.129-73.85,73.851-73.85
		c40.722,0,73.852,33.129,73.852,73.85c0,2.348,1.903,4.25,4.25,4.25s4.25-1.902,4.25-4.25c0-45.408-36.943-82.35-82.352-82.35
		c-45.408,0-82.351,36.941-82.351,82.35c0,45.409,36.942,82.352,82.351,82.352c2.347,0,4.25-1.902,4.25-4.25
		C177.741,454.495,175.838,452.593,173.491,452.593z"/>
	<path d="M212.082,91.01c0-2.348-1.903-4.25-4.25-4.25H57.008c-6.721,0-12.188,5.468-12.188,12.188v214.805
		c0,2.348,1.903,4.25,4.25,4.25c2.347,0,4.25-1.902,4.25-4.25V98.948c0-2.033,1.655-3.688,3.688-3.688h150.824
		C210.18,95.26,212.082,93.358,212.082,91.01z"/>
</g>
<g>
</g>
<g>
</g>
<g>
</g>
<g>
</g>
<g>
</g>
<g>
</g>
<g>
</g>
<g>
</g>
<g>
</g>
<g>
</g>
<g>
</g>
<g>
</g>
<g>
</g>
<g>
</g>
<g>
</g>
</svg>
